<svg id="Layer_1" data-name="Layer 1" xmlns="http://www.w3.org/2000/svg" viewBox="0 0 222.5 181.83"><defs><style>.cls-1{fill:#5385c1;}.cls-2{fill:#fff;}</style></defs><title>noun_write_2104813</title><rect class="cls-1" x="-0.96" y="-2.73" width="224.65" height="184.86"/><path class="cls-2" d="M137.24,106H121.15a5.36,5.36,0,0,1-5.37-5.36V84.53a5.35,5.35,0,0,1,1.56-3.81l45.6-45.61a5.38,5.38,0,0,1,7.59,0l0,0L184,48.53a5.39,5.39,0,1,1-7.62,7.62l-9.61-9.66L126.51,86.73v8.53H135l30.59-30.64a5.39,5.39,0,0,1,7.62,7.62l-32.2,32.2A5.36,5.36,0,0,1,137.24,106Z"/><path class="cls-2" d="M102.78,76.83H86.68a5.37,5.37,0,0,1,0-10.73h16.1a5.37,5.37,0,0,1,0,10.73Z"/><path class="cls-2" d="M97.41,92.93H86.68a5.37,5.37,0,0,1,0-10.73H97.41a5.37,5.37,0,1,1,0,10.73Z"/><polygon class="cls-2" points="68 133.94 68 133.8 67.85 133.94 68 133.94"/><path class="cls-2" d="M150.34,85.07v26a6,6,0,0,1-6,6h-44a36.11,36.11,0,0,0-24.76,9.7l-7.61,7v.14h-.15l.15-.14v-74a6,6,0,0,1,6-6h70.4a5.94,5.94,0,0,1,5.55,3.94l7.63-7.63a16.35,16.35,0,0,0-13.18-6.75H74A16.27,16.27,0,0,0,57.56,59.8v77a9,9,0,0,0,9.1,9.1,8.55,8.55,0,0,0,6.11-2.39l10-9.25a25.61,25.61,0,0,1,17.6-6.86h44A16.46,16.46,0,0,0,160.78,111V75.53C157.76,79.4,155.68,84.68,150.34,85.07Z"/></svg>