<svg id="Layer_1" data-name="Layer 1" xmlns="http://www.w3.org/2000/svg" viewBox="0 0 90.61 91.45"><defs><style>.cls-1{fill:#5385c1;}.cls-2{fill:none;stroke:#fff;stroke-miterlimit:10;stroke-width:1.5px;}</style></defs><title>noun_write_2104813</title><path class="cls-1" d="M46.4,12.17l8.48,18A1.46,1.46,0,0,0,56,31l19,2.89a1.56,1.56,0,0,1,.81,2.62L62,50.56a1.61,1.61,0,0,0-.42,1.36l3.24,19.81a1.48,1.48,0,0,1-2.12,1.62L45.77,64a1.43,1.43,0,0,0-1.36,0l-17,9.36a1.48,1.48,0,0,1-2.12-1.62l3.24-19.81a1.58,1.58,0,0,0-.43-1.36l-13.72-14a1.56,1.56,0,0,1,.81-2.62L34.2,31a1.49,1.49,0,0,0,1.1-.84l8.48-18A1.43,1.43,0,0,1,46.4,12.17Z"/><path class="cls-2" d="M46.41,12l8.51,18.11A1.49,1.49,0,0,0,56,31l19,2.9a1.56,1.56,0,0,1,.81,2.63L62.11,50.6A1.54,1.54,0,0,0,61.69,52l3.25,19.9a1.48,1.48,0,0,1-2.13,1.62l-17-9.39a1.39,1.39,0,0,0-1.37,0l-17,9.39a1.49,1.49,0,0,1-2.14-1.62L28.49,52a1.6,1.6,0,0,0-.42-1.36L14.28,36.51a1.56,1.56,0,0,1,.82-2.63l19-2.9a1.47,1.47,0,0,0,1.1-.84L43.77,12A1.45,1.45,0,0,1,46.41,12Z"/></svg>