<svg id="Layer_1" data-name="Layer 1" xmlns="http://www.w3.org/2000/svg" viewBox="0 0 90.61 91.45"><defs><style>.cls-1{opacity:0.5;}.cls-2{fill:none;stroke:#fff;stroke-miterlimit:10;stroke-width:1.5px;}</style></defs><title>noun_write_2104813</title><path class="cls-1" d="M47.22,11.79,55.81,30a1.47,1.47,0,0,0,1.11.84l19.2,2.93A1.58,1.58,0,0,1,77,36.46L63.05,50.67A1.56,1.56,0,0,0,62.63,52L65.91,72.1a1.5,1.5,0,0,1-2.15,1.64L46.58,64.27a1.39,1.39,0,0,0-1.37,0L28,73.74a1.5,1.5,0,0,1-2.15-1.64L29.16,52a1.56,1.56,0,0,0-.42-1.37L14.84,36.46a1.58,1.58,0,0,1,.82-2.65l19.2-2.93A1.49,1.49,0,0,0,36,30l8.59-18.25A1.44,1.44,0,0,1,47.22,11.79Z"/><path class="cls-2" d="M47.22,11.79,55.81,30a1.47,1.47,0,0,0,1.11.84l19.2,2.93A1.58,1.58,0,0,1,77,36.46L63.05,50.67A1.56,1.56,0,0,0,62.63,52L65.91,72.1a1.5,1.5,0,0,1-2.15,1.64L46.58,64.27a1.39,1.39,0,0,0-1.37,0L28,73.74a1.5,1.5,0,0,1-2.15-1.64L29.16,52a1.56,1.56,0,0,0-.42-1.37L14.84,36.46a1.58,1.58,0,0,1,.82-2.65l19.2-2.93A1.49,1.49,0,0,0,36,30l8.59-18.25A1.44,1.44,0,0,1,47.22,11.79Z"/></svg>